<svg version="1.0" xmlns="http://www.w3.org/2000/svg" width="500pt" height="500pt" viewBox="0 0 500 500" preserveAspectRatio="xMidYMid meet">

<g transform="translate(0,500) scale(0.1,-0.1)">
<path fill="#f5dd5d" d="M1715 4248 c-58 -33 -48 -62 54 -155 175 -159 228 -232 238 -329 7
-69 -14 -199 -36 -218 -10 -9 -60 -24 -112 -35 -231 -46 -472 -162 -666 -318
-118 -95 -253 -276 -333 -447 -109 -231 -130 -345 -111 -590 21 -271 60 -435
145 -619 121 -261 351 -457 615 -523 323 -80 750 -44 1080 92 191 80 359 239
471 446 76 141 155 183 333 176 124 -5 158 -20 249 -111 119 -121 167 -233
191 -447 14 -124 17 -136 42 -157 48 -42 91 -27 137 48 25 39 87 245 98 324
22 157 7 328 -41 472 -46 140 -205 327 -336 396 -63 33 -142 57 -235 72 -56 9
-98 62 -98 125 0 95 -57 113 -390 128 -243 11 -401 2 -465 -26 -120 -54 -223
-148 -261 -239 -25 -59 -5 -173 34 -188 22 -8 189 -24 359 -34 101 -5 158 -13
168 -21 54 -45 64 -162 21 -252 -38 -80 -87 -125 -206 -190 -173 -93 -316
-125 -515 -114 -154 8 -228 26 -344 82 -199 97 -329 286 -373 546 -34 195 110
602 278 788 53 58 104 91 214 138 226 95 440 140 785 162 109 7 167 15 182 25
49 32 41 89 -37 265 -55 127 -104 200 -199 301 -83 89 -271 238 -350 279 -93
46 -271 116 -354 139 -84 23 -200 27 -232 9z"/>
</g>
</svg>
