<?xml version="1.0" standalone="no"?>
<!DOCTYPE svg PUBLIC "-//W3C//DTD SVG 20010904//EN"
 "http://www.w3.org/TR/2001/REC-SVG-20010904/DTD/svg10.dtd">
<svg version="1.0" xmlns="http://www.w3.org/2000/svg"
 width="63.000000pt" height="62.000000pt" viewBox="0 0 63.000000 62.000000"
 preserveAspectRatio="xMidYMid meet">

<g transform="translate(0.000000,62.000000) scale(0.100000,-0.100000)"
fill="#C8C8C8" stroke="none">
<path d="M17 602 c-14 -16 -17 -44 -17 -186 0 -96 4 -176 10 -187 10 -18 23
-19 193 -19 129 0 187 4 195 12 8 8 12 66 12 195 0 170 -1 183 -19 193 -11 6
-91 10 -189 10 -151 0 -171 -2 -185 -18z m368 -187 l0 -180 -180 0 -180 0 -3
169 c-2 117 1 173 9 182 10 12 46 14 183 12 l171 -3 0 -180z"/>
<path d="M76 544 c-20 -19 -20 -38 -2 -54 23 -19 61 -8 64 18 7 44 -32 67 -62
36z m42 -27 c2 -10 -3 -17 -12 -17 -18 0 -29 16 -21 31 9 14 29 6 33 -14z"/>
<path d="M288 549 c-35 -20 -15 -69 29 -69 31 0 44 47 18 67 -22 15 -25 16
-47 2z m40 -32 c2 -12 -3 -17 -17 -17 -12 0 -21 6 -21 13 0 31 32 34 38 4z"/>
<path d="M177 443 c-12 -12 -7 -50 8 -63 32 -27 82 23 55 55 -13 15 -51 20
-63 8z m48 -33 c0 -22 -29 -18 -33 3 -3 14 1 18 15 15 10 -2 18 -10 18 -18z"/>
<path d="M70 330 c-13 -23 2 -60 25 -60 30 0 45 13 45 40 0 42 -51 56 -70 20z
m50 -20 c0 -11 -6 -20 -14 -20 -18 0 -29 16 -21 30 11 18 35 11 35 -10z"/>
<path d="M280 335 c-26 -32 13 -81 48 -59 22 14 27 41 12 59 -16 19 -44 19
-60 0z m46 -16 c10 -17 -13 -36 -27 -22 -12 12 -4 33 11 33 5 0 12 -5 16 -11z"/>
<path d="M426 432 c5 -5 44 -21 87 -37 43 -15 81 -34 84 -41 5 -14 -92 -294
-112 -321 -11 -15 -24 -13 -136 27 -200 70 -212 76 -207 105 6 27 -9 34 -19 9
-15 -40 11 -58 176 -118 132 -48 166 -57 184 -49 18 9 36 45 80 169 61 169 64
185 44 202 -31 26 -210 79 -181 54z"/>
<path d="M453 333 c-19 -7 -16 -60 3 -67 27 -11 43 -7 54 14 21 38 -14 71 -57
53z m42 -33 c0 -8 -8 -16 -17 -18 -13 -2 -18 3 -18 18 0 15 5 20 18 18 9 -2
17 -10 17 -18z"/>
<path d="M230 179 c0 -11 32 -20 51 -14 31 10 22 21 -16 21 -19 0 -35 -3 -35
-7z"/>
<path d="M384 153 c-5 -19 -2 -30 11 -40 23 -16 27 -16 50 0 13 10 16 21 11
40 -5 22 -12 27 -36 27 -24 0 -31 -5 -36 -27z m54 -10 c-2 -10 -10 -18 -18
-18 -8 0 -16 8 -18 18 -2 12 3 17 18 17 15 0 20 -5 18 -17z"/>
</g>
</svg>
