<?xml version="1.0" ?><svg id="Layer_1" style="enable-background:new 0 0 32 32;" version="1.1" viewBox="0 0 32 32" xml:space="preserve" xmlns="http://www.w3.org/2000/svg" xmlns:xlink="http://www.w3.org/1999/xlink"><g><g><path d="M21.5927734,6H2C1.4472656,6,1,5.5527344,1,5s0.4472656-1,1-1h19.5927734c0.5527344,0,1,0.4472656,1,1    S22.1455078,6,21.5927734,6z"/></g><g><path d="M11.3554688,11.5H2c-0.5527344,0-1-0.4472656-1-1s0.4472656-1,1-1h9.3554688c0.5527344,0,1,0.4472656,1,1    S11.9082031,11.5,11.3554688,11.5z"/></g><g><path d="M11.3554688,17H2c-0.5527344,0-1-0.4472656-1-1s0.4472656-1,1-1h9.3554688c0.5527344,0,1,0.4472656,1,1    S11.9082031,17,11.3554688,17z"/></g><g><path d="M11.3554688,22.5H2c-0.5527344,0-1-0.4472656-1-1s0.4472656-1,1-1h9.3554688c0.5527344,0,1,0.4472656,1,1    S11.9082031,22.5,11.3554688,22.5z"/></g><g><path d="M22.3847656,28H2c-0.5527344,0-1-0.4472656-1-1s0.4472656-1,1-1h20.3847656c0.5527344,0,1,0.4472656,1,1    S22.9375,28,22.3847656,28z"/></g><g><g><path d="M30,24.4667969c-0.2558594,0-0.5117188-0.0976563-0.7070313-0.2929688l-3.7919922-3.7919922     c-0.390625-0.390625-0.390625-1.0234375,0-1.4140625s1.0234375-0.390625,1.4140625,0l3.7919922,3.7919922     c0.390625,0.390625,0.390625,1.0234375,0,1.4140625C30.5117188,24.3691406,30.2558594,24.4667969,30,24.4667969z"/></g><g><path d="M21.5927734,22.5820313c-1.9277344,0.0009766-3.8544922-0.7333984-5.3212891-2.2001953     c-1.421875-1.421875-2.2050781-3.3115234-2.2050781-5.3222656s0.7832031-3.9003906,2.2050781-5.3212891     c1.4208984-1.421875,3.3105469-2.2050781,5.3212891-2.2050781s3.9003906,0.7832031,5.3222656,2.2050781l0,0     c1.421875,1.4208984,2.2050781,3.3105469,2.2050781,5.3212891s-0.7832031,3.9003906-2.2050781,5.3222656     C25.4472656,21.8486328,23.5195313,22.5820313,21.5927734,22.5820313z M21.5927734,9.5332031     c-1.4755859,0-2.8632813,0.5751953-3.9072266,1.6191406s-1.6191406,2.4316406-1.6191406,3.9072266     c0,1.4765625,0.5751953,2.8642578,1.6191406,3.9082031c2.1542969,2.1542969,5.6591797,2.1542969,7.8154297,0     c1.0439453-1.0439453,1.6191406-2.4316406,1.6191406-3.9082031c0-1.4755859-0.5751953-2.8632813-1.6191406-3.9072266l0,0     C24.4570313,10.1083984,23.0693359,9.5332031,21.5927734,9.5332031z"/></g></g></g></svg>