<?xml version="1.0" ?><!DOCTYPE svg  PUBLIC '-//W3C//DTD SVG 1.1//EN'  'http://www.w3.org/Graphics/SVG/1.1/DTD/svg11.dtd'><svg enable-background="new 204.424 -203.687 36.315 36.27" height="36.27px" id="Layer_1" version="1.1" viewBox="204.424 -203.687 36.315 36.27" width="36.315px" xml:space="preserve" xmlns="http://www.w3.org/2000/svg" xmlns:xlink="http://www.w3.org/1999/xlink"><g><g><path d="M208.935-167.417c-0.153,0-0.308-0.047-0.438-0.141c-2.112-1.521-3.228-3.038-3.409-4.64    c-0.162-1.419,0.401-2.838,1.719-4.339c2.437-2.776,5.085-5.436,7.646-8.007c0.91-0.914,1.82-1.827,2.722-2.747    c1.604-1.637,3.229-3.253,4.853-4.869l1.898-1.893c-0.423-2.931,0.607-5.773,2.8-7.667c2.225-1.924,5.276-2.478,8.168-1.482    c0.244,0.084,0.429,0.288,0.485,0.54c0.06,0.252-0.018,0.517-0.199,0.699l-3.639,3.639l0.979,2.685    c2.027,0.771,3.197-0.284,4.663-1.607c0.648-0.587,1.32-1.193,2.096-1.627c0.195-0.108,0.432-0.126,0.64-0.043    c0.209,0.082,0.37,0.252,0.439,0.465c0.711,2.179,0.418,4.653-0.782,6.62c-1.076,1.765-2.735,2.907-4.672,3.218    c-3.438,0.555-5.579,2.496-7.83,4.788c-3.691,3.761-7.694,7.663-12.235,11.931c-1.203,1.13-2.521,2.115-3.795,3.068    c-0.56,0.419-1.111,0.832-1.644,1.25C209.263-167.471,209.099-167.417,208.935-167.417z M232.009-202.196    c-1.576,0-3.072,0.548-4.304,1.61c-1.881,1.626-2.719,4.113-2.239,6.652c0.047,0.244-0.03,0.494-0.207,0.669l-2.174,2.167    c-1.62,1.612-3.238,3.224-4.84,4.855c-0.905,0.924-1.816,1.84-2.729,2.756c-2.545,2.555-5.177,5.196-7.582,7.938    c-1.023,1.165-1.467,2.205-1.355,3.18c0.12,1.055,0.889,2.123,2.348,3.258c0.399-0.307,0.808-0.611,1.219-0.92    c1.241-0.928,2.523-1.888,3.666-2.96c4.525-4.253,8.515-8.142,12.191-11.888c2.44-2.485,4.775-4.592,8.662-5.218    c1.497-0.241,2.786-1.136,3.63-2.52c0.795-1.303,1.101-2.878,0.873-4.371c-0.325,0.259-0.646,0.551-0.979,0.851    c-1.546,1.396-3.468,3.137-6.568,1.744c-0.185-0.083-0.327-0.237-0.396-0.427l-1.058-2.902c-0.059-0.033-0.113-0.074-0.164-0.124    c-0.293-0.293-0.293-0.768,0-1.062l3.189-3.19C232.794-202.163,232.399-202.196,232.009-202.196z"/></g><g><path d="M233.626-167.628c-0.192,0-0.386-0.074-0.53-0.22l-8.877-8.896c-0.148-0.149-0.229-0.356-0.218-0.567    c0.012-0.212,0.111-0.409,0.275-0.543l3.031-2.474c0.038-0.03,0.077-0.058,0.119-0.081c0.054-0.098,0.129-0.186,0.226-0.255    l2.985-2.127c0.313-0.223,0.745-0.174,1,0.117c0.589,0.673,1.168,1.347,1.744,2.018c1.396,1.622,2.712,3.153,4.127,4.647    c1.504,1.584,1.605,3.489,0.282,5.226c-0.588,0.771-1.383,1.329-2.303,1.975c-0.433,0.304-0.903,0.633-1.402,1.021    C233.951-167.681,233.789-167.628,233.626-167.628z M225.867-177.216l7.829,7.845c0.326-0.239,0.638-0.458,0.933-0.666    c0.853-0.597,1.524-1.068,1.972-1.654c0.881-1.155,0.822-2.229-0.178-3.284c-1.44-1.521-2.831-3.137-4.176-4.701    c-0.429-0.498-0.857-0.998-1.292-1.497l-2.431,1.733c-0.026,0.019-0.053,0.034-0.081,0.05c-0.045,0.084-0.107,0.161-0.187,0.225    L225.867-177.216z"/></g><g><path d="M208.164-193.403c-0.058,0-0.116-0.008-0.174-0.021c-0.226-0.054-0.414-0.209-0.51-0.421l-2.99-6.613    c-0.159-0.353-0.024-0.769,0.312-0.96l2.761-1.577c0.165-0.094,0.352-0.118,0.523-0.083c0.167-0.031,0.344-0.013,0.504,0.071    l6.089,3.224c0.223,0.118,0.371,0.341,0.396,0.592s-0.08,0.498-0.276,0.655l-6.163,4.968    C208.5-193.461,208.333-193.403,208.164-193.403z M206.138-200.454l2.31,5.108l4.522-3.645l-4.875-2.582L206.138-200.454z"/></g><g><path d="M219.232-187.547c-0.192,0-0.384-0.073-0.53-0.22l-7.634-7.635c-0.293-0.293-0.293-0.769,0-1.062s0.768-0.293,1.061,0    l7.635,7.635c0.293,0.293,0.293,0.769,0,1.062C219.616-187.62,219.423-187.547,219.232-187.547z"/></g><g><path d="M227.783-179.302c-0.191,0-0.384-0.073-0.53-0.22l-2.441-2.443c-0.293-0.293-0.293-0.768,0-1.061    c0.294-0.293,0.769-0.292,1.061,0.001l2.442,2.441c0.293,0.292,0.293,0.769,0,1.062    C228.167-179.375,227.975-179.302,227.783-179.302z"/></g></g></svg>